G75*
G70*
%OFA0B0*%
%FSLAX24Y24*%
%IPPOS*%
%LPD*%
%AMOC8*
5,1,8,0,0,1.08239X$1,22.5*
%
%ADD10C,0.0740*%
%ADD11C,0.0600*%
%ADD12C,0.0825*%
%ADD13R,0.0800X0.0800*%
%ADD14C,0.0800*%
%ADD15C,0.0100*%
%ADD16C,0.0160*%
%ADD17R,0.0396X0.0396*%
%ADD18C,0.0700*%
%ADD19C,0.1660*%
D10*
X002161Y001504D03*
X003161Y001504D03*
X004161Y001504D03*
X005161Y001504D03*
X006161Y001504D03*
X007161Y001504D03*
X008161Y001504D03*
X009161Y001504D03*
X010661Y001504D03*
X011661Y001504D03*
X012661Y001504D03*
X013661Y001504D03*
X014661Y001504D03*
X015661Y001504D03*
X016661Y001504D03*
X017661Y001504D03*
X018881Y019114D03*
X018881Y020894D03*
X021441Y020894D03*
X021441Y019114D03*
X014161Y020504D03*
X013161Y020504D03*
X012161Y020504D03*
X011161Y020504D03*
X010161Y020504D03*
X009161Y020504D03*
X007161Y020504D03*
X006161Y020504D03*
X005161Y020504D03*
X004161Y020504D03*
X003161Y020504D03*
X002161Y020504D03*
D11*
X015361Y008004D02*
X015961Y008004D01*
X015961Y007004D02*
X015361Y007004D01*
X015361Y006004D02*
X015961Y006004D01*
D12*
X003031Y009004D03*
X002161Y009694D03*
X002161Y008314D03*
D13*
X002661Y011254D03*
D14*
X002661Y012632D03*
D15*
X001661Y008051D02*
X001661Y001656D01*
X001720Y001798D01*
X001867Y001945D01*
X002058Y002024D01*
X002265Y002024D01*
X002456Y001945D01*
X002602Y001798D01*
X002661Y001656D01*
X002720Y001798D01*
X002867Y001945D01*
X003058Y002024D01*
X003265Y002024D01*
X003456Y001945D01*
X003602Y001798D01*
X003661Y001656D01*
X003720Y001798D01*
X003867Y001945D01*
X004058Y002024D01*
X004265Y002024D01*
X004456Y001945D01*
X004602Y001798D01*
X004661Y001656D01*
X004720Y001798D01*
X004867Y001945D01*
X004931Y001971D01*
X004931Y002409D01*
X004931Y002599D01*
X005431Y003099D01*
X005566Y003234D01*
X012566Y003234D01*
X015030Y005698D01*
X014980Y005749D01*
X014911Y005914D01*
X014911Y006093D01*
X014980Y006259D01*
X015106Y006385D01*
X015272Y006454D01*
X016051Y006454D01*
X016216Y006385D01*
X016343Y006259D01*
X016411Y006093D01*
X016411Y005914D01*
X016343Y005749D01*
X016216Y005622D01*
X016051Y005554D01*
X015536Y005554D01*
X012756Y002774D01*
X012566Y002774D01*
X005756Y002774D01*
X005391Y002409D01*
X005391Y001971D01*
X005456Y001945D01*
X005602Y001798D01*
X005661Y001656D01*
X005720Y001798D01*
X005867Y001945D01*
X006058Y002024D01*
X006265Y002024D01*
X006456Y001945D01*
X006602Y001798D01*
X006661Y001656D01*
X006720Y001798D01*
X006867Y001945D01*
X007058Y002024D01*
X007265Y002024D01*
X007456Y001945D01*
X007602Y001798D01*
X007661Y001656D01*
X007720Y001798D01*
X007867Y001945D01*
X008058Y002024D01*
X008265Y002024D01*
X008456Y001945D01*
X008602Y001798D01*
X008661Y001656D01*
X008720Y001798D01*
X008867Y001945D01*
X009058Y002024D01*
X009265Y002024D01*
X009456Y001945D01*
X009602Y001798D01*
X009681Y001607D01*
X009681Y001400D01*
X009602Y001209D01*
X009456Y001063D01*
X009313Y001004D01*
X010510Y001004D01*
X010367Y001063D01*
X010220Y001209D01*
X010141Y001400D01*
X010141Y001607D01*
X010220Y001798D01*
X010367Y001945D01*
X010558Y002024D01*
X010765Y002024D01*
X010956Y001945D01*
X011102Y001798D01*
X011161Y001656D01*
X011220Y001798D01*
X011367Y001945D01*
X011558Y002024D01*
X011765Y002024D01*
X011956Y001945D01*
X012102Y001798D01*
X012161Y001656D01*
X012220Y001798D01*
X012367Y001945D01*
X012558Y002024D01*
X012765Y002024D01*
X012956Y001945D01*
X013102Y001798D01*
X013161Y001656D01*
X013220Y001798D01*
X013367Y001945D01*
X013558Y002024D01*
X013765Y002024D01*
X013956Y001945D01*
X014102Y001798D01*
X014161Y001656D01*
X014220Y001798D01*
X014367Y001945D01*
X014558Y002024D01*
X014765Y002024D01*
X014956Y001945D01*
X015102Y001798D01*
X015161Y001656D01*
X015220Y001798D01*
X015367Y001945D01*
X015558Y002024D01*
X015765Y002024D01*
X015956Y001945D01*
X016102Y001798D01*
X016163Y001652D01*
X016179Y001704D01*
X016216Y001776D01*
X016265Y001843D01*
X016322Y001901D01*
X016389Y001949D01*
X016462Y001986D01*
X016539Y002011D01*
X016611Y002022D01*
X016611Y001554D01*
X016711Y001554D01*
X016711Y002022D01*
X016783Y002011D01*
X016861Y001986D01*
X016934Y001949D01*
X017000Y001901D01*
X017058Y001843D01*
X017106Y001776D01*
X017143Y001704D01*
X017160Y001652D01*
X017220Y001798D01*
X017367Y001945D01*
X017558Y002024D01*
X017765Y002024D01*
X017956Y001945D01*
X018102Y001798D01*
X018181Y001607D01*
X018181Y001400D01*
X018102Y001209D01*
X017956Y001063D01*
X017813Y001004D01*
X020180Y001004D01*
X020136Y001079D01*
X020061Y001359D01*
X020061Y001649D01*
X020136Y001929D01*
X020281Y002179D01*
X005391Y002179D01*
X005391Y002081D02*
X020224Y002081D01*
X020281Y002179D02*
X020486Y002384D01*
X020737Y002529D01*
X021016Y002604D01*
X021306Y002604D01*
X021586Y002529D01*
X021837Y002384D01*
X022041Y002179D01*
X022161Y001972D01*
X022161Y021004D01*
X021958Y021004D01*
X021961Y020997D01*
X021961Y020790D01*
X021882Y020599D01*
X021736Y020453D01*
X021545Y020374D01*
X021338Y020374D01*
X021147Y020453D01*
X021000Y020599D01*
X020921Y020790D01*
X020921Y020997D01*
X020924Y021004D01*
X019398Y021004D01*
X019401Y020997D01*
X019401Y020790D01*
X019322Y020599D01*
X019176Y020453D01*
X018985Y020374D01*
X018778Y020374D01*
X018587Y020453D01*
X018440Y020599D01*
X018361Y020790D01*
X018361Y020997D01*
X018364Y021004D01*
X014313Y021004D01*
X014456Y020945D01*
X014602Y020798D01*
X014681Y020607D01*
X018437Y020607D01*
X018397Y020705D02*
X014641Y020705D01*
X014681Y020607D02*
X014681Y020400D01*
X014602Y020209D01*
X014456Y020063D01*
X014265Y019984D01*
X014058Y019984D01*
X013867Y020063D01*
X013720Y020209D01*
X013661Y020352D01*
X013602Y020209D01*
X013456Y020063D01*
X013265Y019984D01*
X013058Y019984D01*
X012867Y020063D01*
X012720Y020209D01*
X012661Y020352D01*
X012602Y020209D01*
X012456Y020063D01*
X012265Y019984D01*
X012058Y019984D01*
X011867Y020063D01*
X011720Y020209D01*
X011660Y020356D01*
X011643Y020304D01*
X011606Y020231D01*
X011558Y020165D01*
X011500Y020107D01*
X011434Y020059D01*
X011361Y020022D01*
X011283Y019997D01*
X011211Y019985D01*
X011211Y020454D01*
X011111Y020454D01*
X010680Y020454D01*
X010211Y020454D01*
X010211Y019985D01*
X010283Y019997D01*
X010361Y020022D01*
X010434Y020059D01*
X010500Y020107D01*
X010558Y020165D01*
X010606Y020231D01*
X010643Y020304D01*
X010661Y020360D01*
X010679Y020304D01*
X010716Y020231D01*
X010765Y020165D01*
X010822Y020107D01*
X010889Y020059D01*
X010962Y020022D01*
X011039Y019997D01*
X011111Y019985D01*
X011111Y020454D01*
X011111Y020554D01*
X010680Y020554D01*
X010211Y020554D01*
X010211Y020454D01*
X010111Y020454D01*
X010111Y019985D01*
X010039Y019997D01*
X009962Y020022D01*
X009889Y020059D01*
X009822Y020107D01*
X009765Y020165D01*
X009716Y020231D01*
X009679Y020304D01*
X009663Y020356D01*
X009602Y020209D01*
X009456Y020063D01*
X009265Y019984D01*
X009058Y019984D01*
X008867Y020063D01*
X008720Y020209D01*
X008641Y020400D01*
X008641Y020607D01*
X007681Y020607D01*
X007602Y020798D01*
X007456Y020945D01*
X007313Y021004D01*
X009010Y021004D01*
X008867Y020945D01*
X008720Y020798D01*
X008641Y020607D01*
X008641Y020508D02*
X007681Y020508D01*
X007681Y020410D02*
X008641Y020410D01*
X008678Y020311D02*
X007644Y020311D01*
X007681Y020400D02*
X007602Y020209D01*
X007456Y020063D01*
X007391Y020036D01*
X007391Y012352D01*
X007421Y012352D01*
X007509Y012264D01*
X007509Y011744D01*
X007421Y011656D01*
X006901Y011656D01*
X006813Y011744D01*
X006813Y012264D01*
X006901Y012352D01*
X006931Y012352D01*
X006931Y020036D01*
X006867Y020063D01*
X006720Y020209D01*
X006661Y020352D01*
X006602Y020209D01*
X006456Y020063D01*
X006265Y019984D01*
X006058Y019984D01*
X005867Y020063D01*
X005720Y020209D01*
X005661Y020352D01*
X005602Y020209D01*
X005456Y020063D01*
X005265Y019984D01*
X005058Y019984D01*
X004867Y020063D01*
X004720Y020209D01*
X004661Y020352D01*
X004602Y020209D01*
X004456Y020063D01*
X004265Y019984D01*
X004058Y019984D01*
X003867Y020063D01*
X003720Y020209D01*
X003661Y020352D01*
X003602Y020209D01*
X003456Y020063D01*
X003265Y019984D01*
X003058Y019984D01*
X002867Y020063D01*
X002720Y020209D01*
X002661Y020352D01*
X002602Y020209D01*
X002456Y020063D01*
X002265Y019984D01*
X002058Y019984D01*
X001867Y020063D01*
X001720Y020209D01*
X001661Y020352D01*
X001661Y019485D01*
X001837Y019384D01*
X002041Y019179D01*
X002186Y018929D01*
X002261Y018649D01*
X002261Y018359D01*
X002186Y018079D01*
X002041Y017829D01*
X001837Y017624D01*
X001661Y017522D01*
X001661Y013120D01*
X001690Y013132D01*
X002431Y013132D01*
X002552Y013182D01*
X002771Y013182D01*
X002973Y013098D01*
X003127Y012943D01*
X003211Y012741D01*
X003211Y012522D01*
X003127Y012320D01*
X002973Y012166D01*
X002771Y012082D01*
X002552Y012082D01*
X002431Y012132D01*
X002161Y012132D01*
X002161Y011766D01*
X002169Y011774D01*
X002203Y011794D01*
X002241Y011804D01*
X002611Y011804D01*
X002611Y011304D01*
X002711Y011304D01*
X002711Y011804D01*
X003081Y011804D01*
X003119Y011794D01*
X003153Y011774D01*
X003181Y011746D01*
X003201Y011712D01*
X003211Y011674D01*
X003211Y011304D01*
X002711Y011304D01*
X002711Y011204D01*
X002711Y010704D01*
X003081Y010704D01*
X003119Y010714D01*
X003153Y010734D01*
X003181Y010762D01*
X003201Y010796D01*
X003211Y010834D01*
X003211Y011204D01*
X002711Y011204D01*
X002611Y011204D01*
X002611Y010704D01*
X002241Y010704D01*
X002203Y010714D01*
X002169Y010734D01*
X002161Y010742D01*
X002161Y010256D01*
X002273Y010256D01*
X002480Y010171D01*
X002638Y010013D01*
X002724Y009806D01*
X002724Y009582D01*
X002661Y009431D01*
X002661Y009429D01*
X002665Y009433D01*
X002736Y009485D01*
X002815Y009525D01*
X002899Y009553D01*
X002981Y009566D01*
X002981Y009054D01*
X003081Y009054D01*
X003081Y009566D01*
X003163Y009553D01*
X003247Y009525D01*
X003326Y009485D01*
X003398Y009433D01*
X003460Y009370D01*
X003512Y009299D01*
X003553Y009220D01*
X003580Y009136D01*
X003593Y009054D01*
X003081Y009054D01*
X003081Y008954D01*
X003081Y008442D01*
X003163Y008455D01*
X003247Y008483D01*
X003326Y008523D01*
X003398Y008575D01*
X003460Y008637D01*
X003512Y008709D01*
X003553Y008788D01*
X003580Y008872D01*
X003593Y008954D01*
X003081Y008954D01*
X002981Y008954D01*
X002981Y008442D01*
X002899Y008455D01*
X002815Y008483D01*
X002736Y008523D01*
X002665Y008575D01*
X002661Y008578D01*
X002661Y008577D01*
X002724Y008426D01*
X002724Y008202D01*
X002638Y007995D01*
X002480Y007837D01*
X002273Y007751D01*
X002049Y007751D01*
X001843Y007837D01*
X001684Y007995D01*
X001661Y008051D01*
X001661Y007993D02*
X001686Y007993D01*
X001661Y007895D02*
X001785Y007895D01*
X001661Y007796D02*
X001941Y007796D01*
X001661Y007698D02*
X008084Y007698D01*
X008084Y007699D02*
X007961Y007241D01*
X007961Y006767D01*
X008084Y006309D01*
X008321Y005899D01*
X008656Y005564D01*
X009066Y005327D01*
X009524Y005204D01*
X009998Y005204D01*
X010456Y005327D01*
X010866Y005564D01*
X011202Y005899D01*
X011439Y006309D01*
X011561Y006767D01*
X011561Y007241D01*
X011439Y007699D01*
X011202Y008109D01*
X010866Y008444D01*
X010456Y008681D01*
X009998Y008804D01*
X009524Y008804D01*
X009066Y008681D01*
X008656Y008444D01*
X008321Y008109D01*
X008084Y007699D01*
X008057Y007599D02*
X001661Y007599D01*
X001661Y007501D02*
X008031Y007501D01*
X008004Y007402D02*
X001661Y007402D01*
X001661Y007303D02*
X007978Y007303D01*
X007961Y007205D02*
X001661Y007205D01*
X001661Y007106D02*
X007961Y007106D01*
X007961Y007008D02*
X001661Y007008D01*
X001661Y006909D02*
X007961Y006909D01*
X007961Y006811D02*
X001661Y006811D01*
X001661Y006712D02*
X007976Y006712D01*
X008002Y006614D02*
X001661Y006614D01*
X001661Y006515D02*
X008029Y006515D01*
X008055Y006417D02*
X001661Y006417D01*
X001661Y006318D02*
X008082Y006318D01*
X008136Y006219D02*
X001661Y006219D01*
X001661Y006121D02*
X008193Y006121D01*
X008249Y006022D02*
X001661Y006022D01*
X001661Y005924D02*
X008306Y005924D01*
X008394Y005825D02*
X001661Y005825D01*
X001661Y005727D02*
X008493Y005727D01*
X008591Y005628D02*
X001661Y005628D01*
X001661Y005530D02*
X008715Y005530D01*
X008885Y005431D02*
X001661Y005431D01*
X001661Y005333D02*
X009056Y005333D01*
X009412Y005234D02*
X001661Y005234D01*
X001661Y005135D02*
X014468Y005135D01*
X014369Y005037D02*
X001661Y005037D01*
X001661Y004938D02*
X014271Y004938D01*
X014172Y004840D02*
X001661Y004840D01*
X001661Y004741D02*
X014073Y004741D01*
X013975Y004643D02*
X001661Y004643D01*
X001661Y004544D02*
X013876Y004544D01*
X013778Y004446D02*
X001661Y004446D01*
X001661Y004347D02*
X013679Y004347D01*
X013581Y004249D02*
X001661Y004249D01*
X001661Y004150D02*
X013482Y004150D01*
X013384Y004051D02*
X001661Y004051D01*
X001661Y003953D02*
X013285Y003953D01*
X013187Y003854D02*
X001661Y003854D01*
X001661Y003756D02*
X013088Y003756D01*
X012989Y003657D02*
X001661Y003657D01*
X001661Y003559D02*
X012891Y003559D01*
X012792Y003460D02*
X001661Y003460D01*
X001661Y003362D02*
X012694Y003362D01*
X012595Y003263D02*
X001661Y003263D01*
X001661Y003165D02*
X005497Y003165D01*
X005398Y003066D02*
X001661Y003066D01*
X001661Y002968D02*
X005300Y002968D01*
X005201Y002869D02*
X001661Y002869D01*
X001661Y002770D02*
X005103Y002770D01*
X005004Y002672D02*
X001661Y002672D01*
X001661Y002573D02*
X004931Y002573D01*
X004931Y002475D02*
X001661Y002475D01*
X001661Y002376D02*
X004931Y002376D01*
X004931Y002278D02*
X001661Y002278D01*
X001661Y002179D02*
X004931Y002179D01*
X004931Y002081D02*
X001661Y002081D01*
X001661Y001982D02*
X001957Y001982D01*
X001806Y001884D02*
X001661Y001884D01*
X001661Y001785D02*
X001715Y001785D01*
X001674Y001686D02*
X001661Y001686D01*
X002366Y001982D02*
X002957Y001982D01*
X002806Y001884D02*
X002517Y001884D01*
X002608Y001785D02*
X002715Y001785D01*
X002674Y001686D02*
X002648Y001686D01*
X003366Y001982D02*
X003957Y001982D01*
X003806Y001884D02*
X003517Y001884D01*
X003608Y001785D02*
X003715Y001785D01*
X003674Y001686D02*
X003648Y001686D01*
X004366Y001982D02*
X004931Y001982D01*
X004806Y001884D02*
X004517Y001884D01*
X004608Y001785D02*
X004715Y001785D01*
X004674Y001686D02*
X004648Y001686D01*
X005391Y001982D02*
X005957Y001982D01*
X005806Y001884D02*
X005517Y001884D01*
X005608Y001785D02*
X005715Y001785D01*
X005674Y001686D02*
X005648Y001686D01*
X005391Y002278D02*
X020379Y002278D01*
X020478Y002376D02*
X005391Y002376D01*
X005457Y002475D02*
X020643Y002475D01*
X020902Y002573D02*
X005556Y002573D01*
X005654Y002672D02*
X022161Y002672D01*
X022161Y002770D02*
X005753Y002770D01*
X006366Y001982D02*
X006957Y001982D01*
X006806Y001884D02*
X006517Y001884D01*
X006608Y001785D02*
X006715Y001785D01*
X006674Y001686D02*
X006648Y001686D01*
X007366Y001982D02*
X007957Y001982D01*
X007806Y001884D02*
X007517Y001884D01*
X007608Y001785D02*
X007715Y001785D01*
X007674Y001686D02*
X007648Y001686D01*
X008366Y001982D02*
X008957Y001982D01*
X008806Y001884D02*
X008517Y001884D01*
X008608Y001785D02*
X008715Y001785D01*
X008674Y001686D02*
X008648Y001686D01*
X009366Y001982D02*
X010457Y001982D01*
X010306Y001884D02*
X009517Y001884D01*
X009608Y001785D02*
X010215Y001785D01*
X010174Y001686D02*
X009648Y001686D01*
X009681Y001588D02*
X010141Y001588D01*
X010141Y001489D02*
X009681Y001489D01*
X009677Y001391D02*
X010145Y001391D01*
X010186Y001292D02*
X009636Y001292D01*
X009586Y001194D02*
X010236Y001194D01*
X010335Y001095D02*
X009488Y001095D01*
X010866Y001982D02*
X011457Y001982D01*
X011306Y001884D02*
X011017Y001884D01*
X011108Y001785D02*
X011215Y001785D01*
X011174Y001686D02*
X011148Y001686D01*
X011866Y001982D02*
X012457Y001982D01*
X012306Y001884D02*
X012017Y001884D01*
X012108Y001785D02*
X012215Y001785D01*
X012174Y001686D02*
X012148Y001686D01*
X012866Y001982D02*
X013457Y001982D01*
X013306Y001884D02*
X013017Y001884D01*
X013108Y001785D02*
X013215Y001785D01*
X013174Y001686D02*
X013148Y001686D01*
X013866Y001982D02*
X014457Y001982D01*
X014306Y001884D02*
X014017Y001884D01*
X014108Y001785D02*
X014215Y001785D01*
X014174Y001686D02*
X014148Y001686D01*
X014866Y001982D02*
X015457Y001982D01*
X015306Y001884D02*
X015017Y001884D01*
X015108Y001785D02*
X015215Y001785D01*
X015174Y001686D02*
X015148Y001686D01*
X015866Y001982D02*
X016454Y001982D01*
X016611Y001982D02*
X016711Y001982D01*
X016711Y001884D02*
X016611Y001884D01*
X016611Y001785D02*
X016711Y001785D01*
X016711Y001686D02*
X016611Y001686D01*
X016611Y001588D02*
X016711Y001588D01*
X017017Y001884D02*
X017306Y001884D01*
X017215Y001785D02*
X017100Y001785D01*
X017149Y001686D02*
X017174Y001686D01*
X017457Y001982D02*
X016868Y001982D01*
X016305Y001884D02*
X016017Y001884D01*
X016108Y001785D02*
X016223Y001785D01*
X016174Y001686D02*
X016148Y001686D01*
X017866Y001982D02*
X020167Y001982D01*
X020124Y001884D02*
X018017Y001884D01*
X018108Y001785D02*
X020098Y001785D01*
X020071Y001686D02*
X018148Y001686D01*
X018181Y001588D02*
X020061Y001588D01*
X020061Y001489D02*
X018181Y001489D01*
X018177Y001391D02*
X020061Y001391D01*
X020079Y001292D02*
X018136Y001292D01*
X018086Y001194D02*
X020106Y001194D01*
X020132Y001095D02*
X017988Y001095D01*
X021420Y002573D02*
X022161Y002573D01*
X022161Y002475D02*
X021680Y002475D01*
X021845Y002376D02*
X022161Y002376D01*
X022161Y002278D02*
X021943Y002278D01*
X022042Y002179D02*
X022161Y002179D01*
X022161Y002081D02*
X022098Y002081D01*
X022155Y001982D02*
X022161Y001982D01*
X022161Y002869D02*
X012852Y002869D01*
X012950Y002968D02*
X022161Y002968D01*
X022161Y003066D02*
X013049Y003066D01*
X013147Y003165D02*
X022161Y003165D01*
X022161Y003263D02*
X013246Y003263D01*
X013344Y003362D02*
X022161Y003362D01*
X022161Y003460D02*
X013443Y003460D01*
X013541Y003559D02*
X022161Y003559D01*
X022161Y003657D02*
X013640Y003657D01*
X013738Y003756D02*
X022161Y003756D01*
X022161Y003854D02*
X013837Y003854D01*
X013936Y003953D02*
X022161Y003953D01*
X022161Y004051D02*
X014034Y004051D01*
X014133Y004150D02*
X022161Y004150D01*
X022161Y004249D02*
X014231Y004249D01*
X014330Y004347D02*
X022161Y004347D01*
X022161Y004446D02*
X014428Y004446D01*
X014527Y004544D02*
X022161Y004544D01*
X022161Y004643D02*
X014625Y004643D01*
X014724Y004741D02*
X022161Y004741D01*
X022161Y004840D02*
X014822Y004840D01*
X014921Y004938D02*
X022161Y004938D01*
X022161Y005037D02*
X015019Y005037D01*
X015118Y005135D02*
X022161Y005135D01*
X022161Y005234D02*
X015217Y005234D01*
X015315Y005333D02*
X022161Y005333D01*
X022161Y005431D02*
X015414Y005431D01*
X015512Y005530D02*
X022161Y005530D01*
X022161Y005628D02*
X016222Y005628D01*
X016320Y005727D02*
X022161Y005727D01*
X022161Y005825D02*
X016374Y005825D01*
X016411Y005924D02*
X022161Y005924D01*
X022161Y006022D02*
X016411Y006022D01*
X016400Y006121D02*
X022161Y006121D01*
X022161Y006219D02*
X016359Y006219D01*
X016284Y006318D02*
X022161Y006318D01*
X022161Y006417D02*
X016141Y006417D01*
X016051Y006554D02*
X016216Y006622D01*
X016343Y006749D01*
X016411Y006914D01*
X016411Y007093D01*
X016343Y007259D01*
X016216Y007385D01*
X016051Y007454D01*
X015272Y007454D01*
X015106Y007385D01*
X014980Y007259D01*
X014911Y007093D01*
X014911Y006914D01*
X014980Y006749D01*
X015106Y006622D01*
X015272Y006554D01*
X016051Y006554D01*
X016195Y006614D02*
X022161Y006614D01*
X022161Y006712D02*
X016306Y006712D01*
X016368Y006811D02*
X022161Y006811D01*
X022161Y006909D02*
X016409Y006909D01*
X016411Y007008D02*
X022161Y007008D01*
X022161Y007106D02*
X016406Y007106D01*
X016365Y007205D02*
X022161Y007205D01*
X022161Y007303D02*
X016298Y007303D01*
X016176Y007402D02*
X022161Y007402D01*
X022161Y007501D02*
X011492Y007501D01*
X011465Y007599D02*
X015163Y007599D01*
X015106Y007622D02*
X015272Y007554D01*
X016051Y007554D01*
X016216Y007622D01*
X016343Y007749D01*
X016411Y007914D01*
X016411Y008093D01*
X016343Y008259D01*
X016216Y008385D01*
X016051Y008454D01*
X015272Y008454D01*
X015106Y008385D01*
X014980Y008259D01*
X014911Y008093D01*
X014911Y007914D01*
X014980Y007749D01*
X015106Y007622D01*
X015031Y007698D02*
X011439Y007698D01*
X011382Y007796D02*
X014960Y007796D01*
X014919Y007895D02*
X011325Y007895D01*
X011269Y007993D02*
X014911Y007993D01*
X014911Y008092D02*
X011212Y008092D01*
X011120Y008190D02*
X014951Y008190D01*
X015010Y008289D02*
X011022Y008289D01*
X010923Y008387D02*
X015111Y008387D01*
X015146Y007402D02*
X011518Y007402D01*
X011544Y007303D02*
X015024Y007303D01*
X014957Y007205D02*
X011561Y007205D01*
X011561Y007106D02*
X014917Y007106D01*
X014911Y007008D02*
X011561Y007008D01*
X011561Y006909D02*
X014913Y006909D01*
X014954Y006811D02*
X011561Y006811D01*
X011547Y006712D02*
X015017Y006712D01*
X015128Y006614D02*
X011520Y006614D01*
X011494Y006515D02*
X022161Y006515D01*
X022161Y007599D02*
X016160Y007599D01*
X016291Y007698D02*
X022161Y007698D01*
X022161Y007796D02*
X016362Y007796D01*
X016403Y007895D02*
X022161Y007895D01*
X022161Y007993D02*
X016411Y007993D01*
X016411Y008092D02*
X022161Y008092D01*
X022161Y008190D02*
X016371Y008190D01*
X016313Y008289D02*
X022161Y008289D01*
X022161Y008387D02*
X016211Y008387D01*
X015182Y006417D02*
X011467Y006417D01*
X011441Y006318D02*
X015039Y006318D01*
X014963Y006219D02*
X011387Y006219D01*
X011330Y006121D02*
X014923Y006121D01*
X014911Y006022D02*
X011273Y006022D01*
X011216Y005924D02*
X014911Y005924D01*
X014948Y005825D02*
X011128Y005825D01*
X011030Y005727D02*
X015002Y005727D01*
X014960Y005628D02*
X010931Y005628D01*
X010808Y005530D02*
X014862Y005530D01*
X014763Y005431D02*
X010637Y005431D01*
X010466Y005333D02*
X014665Y005333D01*
X014566Y005234D02*
X010110Y005234D01*
X008140Y007796D02*
X002381Y007796D01*
X002538Y007895D02*
X008197Y007895D01*
X008254Y007993D02*
X002636Y007993D01*
X002678Y008092D02*
X008311Y008092D01*
X008402Y008190D02*
X002719Y008190D01*
X002724Y008289D02*
X008501Y008289D01*
X008599Y008387D02*
X002724Y008387D01*
X002699Y008486D02*
X002809Y008486D01*
X002981Y008486D02*
X003081Y008486D01*
X003081Y008584D02*
X002981Y008584D01*
X002981Y008683D02*
X003081Y008683D01*
X003081Y008782D02*
X002981Y008782D01*
X002981Y008880D02*
X003081Y008880D01*
X003081Y008979D02*
X022161Y008979D01*
X022161Y009077D02*
X003589Y009077D01*
X003567Y009176D02*
X022161Y009176D01*
X022161Y009274D02*
X003525Y009274D01*
X003458Y009373D02*
X022161Y009373D01*
X022161Y009471D02*
X003345Y009471D01*
X003081Y009471D02*
X002981Y009471D01*
X002981Y009373D02*
X003081Y009373D01*
X003081Y009274D02*
X002981Y009274D01*
X002981Y009176D02*
X003081Y009176D01*
X003081Y009077D02*
X002981Y009077D01*
X002718Y009471D02*
X002678Y009471D01*
X002719Y009570D02*
X022161Y009570D01*
X022161Y009668D02*
X002724Y009668D01*
X002724Y009767D02*
X022161Y009767D01*
X022161Y009866D02*
X002699Y009866D01*
X002658Y009964D02*
X022161Y009964D01*
X022161Y010063D02*
X002588Y010063D01*
X002489Y010161D02*
X022161Y010161D01*
X022161Y010260D02*
X002161Y010260D01*
X002161Y010358D02*
X022161Y010358D01*
X022161Y010457D02*
X002161Y010457D01*
X002161Y010555D02*
X022161Y010555D01*
X022161Y010654D02*
X002161Y010654D01*
X002611Y010752D02*
X002711Y010752D01*
X002711Y010851D02*
X002611Y010851D01*
X002611Y010950D02*
X002711Y010950D01*
X002711Y011048D02*
X002611Y011048D01*
X002611Y011147D02*
X002711Y011147D01*
X002711Y011245D02*
X022161Y011245D01*
X022161Y011147D02*
X003211Y011147D01*
X003211Y011048D02*
X022161Y011048D01*
X022161Y010950D02*
X003211Y010950D01*
X003211Y010851D02*
X022161Y010851D01*
X022161Y010752D02*
X003172Y010752D01*
X003211Y011344D02*
X022161Y011344D01*
X022161Y011442D02*
X003211Y011442D01*
X003211Y011541D02*
X022161Y011541D01*
X022161Y011639D02*
X003211Y011639D01*
X003186Y011738D02*
X006819Y011738D01*
X006813Y011836D02*
X002161Y011836D01*
X002161Y011935D02*
X006813Y011935D01*
X006813Y012034D02*
X002161Y012034D01*
X002611Y011738D02*
X002711Y011738D01*
X002711Y011639D02*
X002611Y011639D01*
X002611Y011541D02*
X002711Y011541D01*
X002711Y011442D02*
X002611Y011442D01*
X002611Y011344D02*
X002711Y011344D01*
X002892Y012132D02*
X006813Y012132D01*
X006813Y012231D02*
X003038Y012231D01*
X003131Y012329D02*
X006878Y012329D01*
X006931Y012428D02*
X003172Y012428D01*
X003211Y012526D02*
X006931Y012526D01*
X006931Y012625D02*
X003211Y012625D01*
X003211Y012723D02*
X006931Y012723D01*
X006931Y012822D02*
X003178Y012822D01*
X003137Y012920D02*
X006931Y012920D01*
X006931Y013019D02*
X003052Y013019D01*
X002926Y013117D02*
X006931Y013117D01*
X006931Y013216D02*
X001661Y013216D01*
X001661Y013315D02*
X006931Y013315D01*
X006931Y013413D02*
X001661Y013413D01*
X001661Y013512D02*
X006931Y013512D01*
X006931Y013610D02*
X001661Y013610D01*
X001661Y013709D02*
X006931Y013709D01*
X006931Y013807D02*
X001661Y013807D01*
X001661Y013906D02*
X006931Y013906D01*
X006931Y014004D02*
X001661Y014004D01*
X001661Y014103D02*
X005276Y014103D01*
X005106Y014173D02*
X005466Y014024D01*
X005856Y014024D01*
X006216Y014173D01*
X006492Y014449D01*
X006641Y014809D01*
X006641Y015199D01*
X006492Y015559D01*
X006216Y015835D01*
X005856Y015984D01*
X005466Y015984D01*
X005106Y015835D01*
X004831Y015559D01*
X004681Y015199D01*
X004681Y014809D01*
X004831Y014449D01*
X005106Y014173D01*
X005078Y014201D02*
X001661Y014201D01*
X001661Y014300D02*
X004979Y014300D01*
X004881Y014399D02*
X001661Y014399D01*
X001661Y014497D02*
X004811Y014497D01*
X004770Y014596D02*
X001661Y014596D01*
X001661Y014694D02*
X004729Y014694D01*
X004688Y014793D02*
X001661Y014793D01*
X001661Y014891D02*
X004681Y014891D01*
X004681Y014990D02*
X001661Y014990D01*
X001661Y015088D02*
X004681Y015088D01*
X004681Y015187D02*
X001661Y015187D01*
X001661Y015285D02*
X004717Y015285D01*
X004758Y015384D02*
X001661Y015384D01*
X001661Y015483D02*
X004799Y015483D01*
X004853Y015581D02*
X001661Y015581D01*
X001661Y015680D02*
X004951Y015680D01*
X005050Y015778D02*
X001661Y015778D01*
X001661Y015877D02*
X005208Y015877D01*
X005446Y015975D02*
X001661Y015975D01*
X001661Y016074D02*
X006931Y016074D01*
X006931Y016172D02*
X001661Y016172D01*
X001661Y016271D02*
X006931Y016271D01*
X006931Y016369D02*
X001661Y016369D01*
X001661Y016468D02*
X006931Y016468D01*
X006931Y016566D02*
X001661Y016566D01*
X001661Y016665D02*
X006931Y016665D01*
X006931Y016764D02*
X001661Y016764D01*
X001661Y016862D02*
X006931Y016862D01*
X006931Y016961D02*
X001661Y016961D01*
X001661Y017059D02*
X006931Y017059D01*
X006931Y017158D02*
X001661Y017158D01*
X001661Y017256D02*
X006931Y017256D01*
X006931Y017355D02*
X001661Y017355D01*
X001661Y017453D02*
X006931Y017453D01*
X006931Y017552D02*
X001712Y017552D01*
X001863Y017650D02*
X006931Y017650D01*
X006931Y017749D02*
X001962Y017749D01*
X002052Y017848D02*
X006931Y017848D01*
X006931Y017946D02*
X002109Y017946D01*
X002166Y018045D02*
X006931Y018045D01*
X006931Y018143D02*
X002203Y018143D01*
X002230Y018242D02*
X006931Y018242D01*
X006931Y018340D02*
X002256Y018340D01*
X002261Y018439D02*
X006931Y018439D01*
X006931Y018537D02*
X002261Y018537D01*
X002261Y018636D02*
X006931Y018636D01*
X006931Y018734D02*
X002238Y018734D01*
X002212Y018833D02*
X006931Y018833D01*
X006931Y018932D02*
X002185Y018932D01*
X002128Y019030D02*
X006931Y019030D01*
X006931Y019129D02*
X002071Y019129D01*
X001994Y019227D02*
X006931Y019227D01*
X006931Y019326D02*
X001895Y019326D01*
X001767Y019424D02*
X006931Y019424D01*
X006931Y019523D02*
X001661Y019523D01*
X001661Y019621D02*
X006931Y019621D01*
X006931Y019720D02*
X001661Y019720D01*
X001661Y019818D02*
X006931Y019818D01*
X006931Y019917D02*
X001661Y019917D01*
X001661Y020016D02*
X001982Y020016D01*
X001816Y020114D02*
X001661Y020114D01*
X001661Y020213D02*
X001719Y020213D01*
X001678Y020311D02*
X001661Y020311D01*
X002341Y020016D02*
X002982Y020016D01*
X002816Y020114D02*
X002507Y020114D01*
X002603Y020213D02*
X002719Y020213D01*
X002678Y020311D02*
X002644Y020311D01*
X003341Y020016D02*
X003982Y020016D01*
X003816Y020114D02*
X003507Y020114D01*
X003603Y020213D02*
X003719Y020213D01*
X003678Y020311D02*
X003644Y020311D01*
X004341Y020016D02*
X004982Y020016D01*
X004816Y020114D02*
X004507Y020114D01*
X004603Y020213D02*
X004719Y020213D01*
X004678Y020311D02*
X004644Y020311D01*
X005341Y020016D02*
X005982Y020016D01*
X005816Y020114D02*
X005507Y020114D01*
X005603Y020213D02*
X005719Y020213D01*
X005678Y020311D02*
X005644Y020311D01*
X006341Y020016D02*
X006931Y020016D01*
X006816Y020114D02*
X006507Y020114D01*
X006603Y020213D02*
X006719Y020213D01*
X006678Y020311D02*
X006644Y020311D01*
X007391Y020016D02*
X008982Y020016D01*
X008816Y020114D02*
X007507Y020114D01*
X007603Y020213D02*
X008719Y020213D01*
X008682Y020705D02*
X007641Y020705D01*
X007681Y020607D02*
X007681Y020400D01*
X007597Y020804D02*
X008726Y020804D01*
X008824Y020902D02*
X007498Y020902D01*
X007320Y021001D02*
X009002Y021001D01*
X009644Y020311D02*
X009677Y020311D01*
X009730Y020213D02*
X009603Y020213D01*
X009507Y020114D02*
X009816Y020114D01*
X009982Y020016D02*
X009341Y020016D01*
X010111Y020016D02*
X010211Y020016D01*
X010211Y020114D02*
X010111Y020114D01*
X010111Y020213D02*
X010211Y020213D01*
X010211Y020311D02*
X010111Y020311D01*
X010111Y020410D02*
X010211Y020410D01*
X010211Y020508D02*
X011111Y020508D01*
X011111Y020410D02*
X011211Y020410D01*
X011211Y020311D02*
X011111Y020311D01*
X011111Y020213D02*
X011211Y020213D01*
X011211Y020114D02*
X011111Y020114D01*
X011111Y020016D02*
X011211Y020016D01*
X011341Y020016D02*
X011982Y020016D01*
X011816Y020114D02*
X011507Y020114D01*
X011592Y020213D02*
X011719Y020213D01*
X011678Y020311D02*
X011645Y020311D01*
X010982Y020016D02*
X010341Y020016D01*
X010507Y020114D02*
X010816Y020114D01*
X010730Y020213D02*
X010592Y020213D01*
X010645Y020311D02*
X010677Y020311D01*
X012341Y020016D02*
X012982Y020016D01*
X012816Y020114D02*
X012507Y020114D01*
X012603Y020213D02*
X012719Y020213D01*
X012678Y020311D02*
X012644Y020311D01*
X013341Y020016D02*
X013982Y020016D01*
X013816Y020114D02*
X013507Y020114D01*
X013603Y020213D02*
X013719Y020213D01*
X013678Y020311D02*
X013644Y020311D01*
X014341Y020016D02*
X022161Y020016D01*
X022161Y020114D02*
X014507Y020114D01*
X014603Y020213D02*
X022161Y020213D01*
X022161Y020311D02*
X014644Y020311D01*
X014681Y020410D02*
X018691Y020410D01*
X018532Y020508D02*
X014681Y020508D01*
X014597Y020804D02*
X018361Y020804D01*
X018361Y020902D02*
X014498Y020902D01*
X014320Y021001D02*
X018363Y021001D01*
X019071Y020410D02*
X021251Y020410D01*
X021092Y020508D02*
X019231Y020508D01*
X019325Y020607D02*
X020997Y020607D01*
X020957Y020705D02*
X019366Y020705D01*
X019401Y020804D02*
X020921Y020804D01*
X020921Y020902D02*
X019401Y020902D01*
X019400Y021001D02*
X020923Y021001D01*
X021631Y020410D02*
X022161Y020410D01*
X022161Y020508D02*
X021791Y020508D01*
X021885Y020607D02*
X022161Y020607D01*
X022161Y020705D02*
X021926Y020705D01*
X021961Y020804D02*
X022161Y020804D01*
X022161Y020902D02*
X021961Y020902D01*
X021960Y021001D02*
X022161Y021001D01*
X022161Y019917D02*
X007391Y019917D01*
X007391Y019818D02*
X022161Y019818D01*
X022161Y019720D02*
X007391Y019720D01*
X007391Y019621D02*
X018761Y019621D01*
X018759Y019621D02*
X018682Y019596D01*
X018609Y019559D01*
X018542Y019511D01*
X018485Y019453D01*
X018436Y019386D01*
X018399Y019314D01*
X018374Y019236D01*
X018363Y019164D01*
X018831Y019164D01*
X018831Y019064D01*
X018363Y019064D01*
X018374Y018992D01*
X018399Y018914D01*
X018436Y018841D01*
X018485Y018775D01*
X018542Y018717D01*
X018609Y018669D01*
X018682Y018632D01*
X018759Y018607D01*
X018831Y018595D01*
X018831Y019064D01*
X018931Y019064D01*
X018931Y018595D01*
X019003Y018607D01*
X019081Y018632D01*
X019154Y018669D01*
X019220Y018717D01*
X019278Y018775D01*
X019326Y018841D01*
X019363Y018914D01*
X019388Y018992D01*
X019400Y019064D01*
X018931Y019064D01*
X018931Y019164D01*
X018831Y019164D01*
X018831Y019632D01*
X018759Y019621D01*
X018831Y019621D02*
X018931Y019621D01*
X018931Y019632D02*
X019003Y019621D01*
X019081Y019596D01*
X019154Y019559D01*
X019220Y019511D01*
X019278Y019453D01*
X019326Y019386D01*
X019363Y019314D01*
X019388Y019236D01*
X019400Y019164D01*
X018931Y019164D01*
X018931Y019632D01*
X019002Y019621D02*
X021308Y019621D01*
X021338Y019634D02*
X021147Y019555D01*
X021000Y019408D01*
X020921Y019217D01*
X020921Y019010D01*
X021000Y018819D01*
X021147Y018673D01*
X021338Y018594D01*
X021545Y018594D01*
X021736Y018673D01*
X021882Y018819D01*
X021961Y019010D01*
X021961Y019217D01*
X021882Y019408D01*
X021736Y019555D01*
X021545Y019634D01*
X021338Y019634D01*
X021575Y019621D02*
X022161Y019621D01*
X022161Y019523D02*
X021768Y019523D01*
X021866Y019424D02*
X022161Y019424D01*
X022161Y019326D02*
X021916Y019326D01*
X021957Y019227D02*
X022161Y019227D01*
X022161Y019129D02*
X021961Y019129D01*
X021961Y019030D02*
X022161Y019030D01*
X022161Y018932D02*
X021929Y018932D01*
X021888Y018833D02*
X022161Y018833D01*
X022161Y018734D02*
X021797Y018734D01*
X021646Y018636D02*
X022161Y018636D01*
X022161Y018537D02*
X007391Y018537D01*
X007391Y018439D02*
X022161Y018439D01*
X022161Y018340D02*
X007391Y018340D01*
X007391Y018242D02*
X022161Y018242D01*
X022161Y018143D02*
X007391Y018143D01*
X007391Y018045D02*
X022161Y018045D01*
X022161Y017946D02*
X007391Y017946D01*
X007391Y017848D02*
X022161Y017848D01*
X022161Y017749D02*
X007391Y017749D01*
X007391Y017650D02*
X022161Y017650D01*
X022161Y017552D02*
X007391Y017552D01*
X007391Y017453D02*
X022161Y017453D01*
X022161Y017355D02*
X007391Y017355D01*
X007391Y017256D02*
X022161Y017256D01*
X022161Y017158D02*
X007391Y017158D01*
X007391Y017059D02*
X022161Y017059D01*
X022161Y016961D02*
X007391Y016961D01*
X007391Y016862D02*
X022161Y016862D01*
X022161Y016764D02*
X007391Y016764D01*
X007391Y016665D02*
X022161Y016665D01*
X022161Y016566D02*
X007391Y016566D01*
X007391Y016468D02*
X022161Y016468D01*
X022161Y016369D02*
X007391Y016369D01*
X007391Y016271D02*
X022161Y016271D01*
X022161Y016172D02*
X007391Y016172D01*
X007391Y016074D02*
X022161Y016074D01*
X022161Y015975D02*
X007391Y015975D01*
X007391Y015877D02*
X022161Y015877D01*
X022161Y015778D02*
X007391Y015778D01*
X007391Y015680D02*
X022161Y015680D01*
X022161Y015581D02*
X007391Y015581D01*
X007391Y015483D02*
X022161Y015483D01*
X022161Y015384D02*
X007391Y015384D01*
X007391Y015285D02*
X022161Y015285D01*
X022161Y015187D02*
X007391Y015187D01*
X007391Y015088D02*
X022161Y015088D01*
X022161Y014990D02*
X007391Y014990D01*
X007391Y014891D02*
X022161Y014891D01*
X022161Y014793D02*
X007391Y014793D01*
X007391Y014694D02*
X022161Y014694D01*
X022161Y014596D02*
X007391Y014596D01*
X007391Y014497D02*
X022161Y014497D01*
X022161Y014399D02*
X007391Y014399D01*
X007391Y014300D02*
X022161Y014300D01*
X022161Y014201D02*
X007391Y014201D01*
X007391Y014103D02*
X022161Y014103D01*
X022161Y014004D02*
X007391Y014004D01*
X007391Y013906D02*
X022161Y013906D01*
X022161Y013807D02*
X007391Y013807D01*
X007391Y013709D02*
X022161Y013709D01*
X022161Y013610D02*
X007391Y013610D01*
X007391Y013512D02*
X022161Y013512D01*
X022161Y013413D02*
X007391Y013413D01*
X007391Y013315D02*
X022161Y013315D01*
X022161Y013216D02*
X007391Y013216D01*
X007391Y013117D02*
X022161Y013117D01*
X022161Y013019D02*
X007391Y013019D01*
X007391Y012920D02*
X022161Y012920D01*
X022161Y012822D02*
X007391Y012822D01*
X007391Y012723D02*
X022161Y012723D01*
X022161Y012625D02*
X007391Y012625D01*
X007391Y012526D02*
X022161Y012526D01*
X022161Y012428D02*
X007391Y012428D01*
X007444Y012329D02*
X022161Y012329D01*
X022161Y012231D02*
X007509Y012231D01*
X007509Y012132D02*
X022161Y012132D01*
X022161Y012034D02*
X007509Y012034D01*
X007509Y011935D02*
X022161Y011935D01*
X022161Y011836D02*
X007509Y011836D01*
X007504Y011738D02*
X022161Y011738D01*
X022161Y008880D02*
X003581Y008880D01*
X003549Y008782D02*
X009441Y008782D01*
X009073Y008683D02*
X003493Y008683D01*
X003407Y008584D02*
X008899Y008584D01*
X008728Y008486D02*
X003254Y008486D01*
X010082Y008782D02*
X022161Y008782D01*
X022161Y008683D02*
X010449Y008683D01*
X010624Y008584D02*
X022161Y008584D01*
X022161Y008486D02*
X010794Y008486D01*
X006931Y014103D02*
X006047Y014103D01*
X006245Y014201D02*
X006931Y014201D01*
X006931Y014300D02*
X006343Y014300D01*
X006442Y014399D02*
X006931Y014399D01*
X006931Y014497D02*
X006512Y014497D01*
X006553Y014596D02*
X006931Y014596D01*
X006931Y014694D02*
X006594Y014694D01*
X006634Y014793D02*
X006931Y014793D01*
X006931Y014891D02*
X006641Y014891D01*
X006641Y014990D02*
X006931Y014990D01*
X006931Y015088D02*
X006641Y015088D01*
X006641Y015187D02*
X006931Y015187D01*
X006931Y015285D02*
X006605Y015285D01*
X006564Y015384D02*
X006931Y015384D01*
X006931Y015483D02*
X006524Y015483D01*
X006470Y015581D02*
X006931Y015581D01*
X006931Y015680D02*
X006371Y015680D01*
X006273Y015778D02*
X006931Y015778D01*
X006931Y015877D02*
X006115Y015877D01*
X005877Y015975D02*
X006931Y015975D01*
X007391Y018636D02*
X018674Y018636D01*
X018831Y018636D02*
X018931Y018636D01*
X018931Y018734D02*
X018831Y018734D01*
X018831Y018833D02*
X018931Y018833D01*
X018931Y018932D02*
X018831Y018932D01*
X018831Y019030D02*
X018931Y019030D01*
X018931Y019129D02*
X020921Y019129D01*
X020925Y019227D02*
X019390Y019227D01*
X019357Y019326D02*
X020966Y019326D01*
X021016Y019424D02*
X019299Y019424D01*
X019203Y019523D02*
X021115Y019523D01*
X020921Y019030D02*
X019394Y019030D01*
X019369Y018932D02*
X020954Y018932D01*
X020995Y018833D02*
X019320Y018833D01*
X019237Y018734D02*
X021085Y018734D01*
X021236Y018636D02*
X019088Y018636D01*
X018831Y019129D02*
X007391Y019129D01*
X007391Y019227D02*
X018373Y019227D01*
X018406Y019326D02*
X007391Y019326D01*
X007391Y019424D02*
X018464Y019424D01*
X018559Y019523D02*
X007391Y019523D01*
X007391Y019030D02*
X018368Y019030D01*
X018394Y018932D02*
X007391Y018932D01*
X007391Y018833D02*
X018443Y018833D01*
X018525Y018734D02*
X007391Y018734D01*
X018831Y019227D02*
X018931Y019227D01*
X018931Y019326D02*
X018831Y019326D01*
X018831Y019424D02*
X018931Y019424D01*
X018931Y019523D02*
X018831Y019523D01*
D16*
X018881Y019114D02*
X015381Y016724D01*
X015161Y016504D01*
X011661Y016504D01*
X011161Y017004D01*
X011161Y020504D01*
X007161Y020504D02*
X007161Y012004D01*
X015661Y006004D02*
X012661Y003004D01*
X005661Y003004D01*
X005161Y002504D01*
X005161Y001504D01*
D17*
X008661Y004504D03*
X007661Y005004D03*
X007661Y006504D03*
X007661Y008004D03*
X007661Y009004D03*
X008661Y009504D03*
X009661Y009504D03*
X010661Y009504D03*
X012161Y009504D03*
X012161Y008504D03*
X012161Y007504D03*
X012161Y006004D03*
X012161Y004504D03*
X010661Y004504D03*
X009661Y004504D03*
X007161Y012004D03*
D18*
X002661Y012632D02*
X001789Y012632D01*
X001661Y012504D01*
X001661Y009504D01*
X002161Y009504D01*
X002161Y008314D01*
X002161Y009504D02*
X002161Y009694D01*
D19*
X005661Y015004D03*
M02*
