G75*
G70*
%OFA0B0*%
%FSLAX24Y24*%
%IPPOS*%
%LPD*%
%AMOC8*
5,1,8,0,0,1.08239X$1,22.5*
%
%ADD10C,0.0820*%
%ADD11C,0.1380*%
%ADD12C,0.0680*%
%ADD13C,0.0905*%
%ADD14C,0.0630*%
%ADD15R,0.0880X0.0880*%
%ADD16C,0.0880*%
%ADD17R,0.0476X0.0476*%
%ADD18C,0.1740*%
D10*
X002161Y001504D03*
X003161Y001504D03*
X004161Y001504D03*
X005161Y001504D03*
X006161Y001504D03*
X007161Y001504D03*
X008161Y001504D03*
X009161Y001504D03*
X010661Y001504D03*
X011661Y001504D03*
X012661Y001504D03*
X013661Y001504D03*
X014661Y001504D03*
X015661Y001504D03*
X016661Y001504D03*
X017661Y001504D03*
X018881Y019114D03*
X018881Y020894D03*
X021441Y020894D03*
X021441Y019114D03*
X014161Y020504D03*
X013161Y020504D03*
X012161Y020504D03*
X011161Y020504D03*
X010161Y020504D03*
X009161Y020504D03*
X007161Y020504D03*
X006161Y020504D03*
X005161Y020504D03*
X004161Y020504D03*
X003161Y020504D03*
X002161Y020504D03*
D11*
X001161Y018504D03*
X009761Y007004D03*
X021161Y001504D03*
D12*
X015961Y006004D02*
X015361Y006004D01*
X015361Y007004D02*
X015961Y007004D01*
X015961Y008004D02*
X015361Y008004D01*
D13*
X003031Y009004D03*
X002161Y009694D03*
X002161Y008314D03*
D14*
X000701Y009004D03*
D15*
X002661Y011254D03*
D16*
X002661Y012632D03*
D17*
X007161Y012004D03*
X008661Y009504D03*
X007661Y009004D03*
X007661Y008004D03*
X007661Y006504D03*
X007661Y005004D03*
X008661Y004504D03*
X009661Y004504D03*
X010661Y004504D03*
X012161Y004504D03*
X012161Y006004D03*
X012161Y007504D03*
X012161Y008504D03*
X012161Y009504D03*
X010661Y009504D03*
X009661Y009504D03*
D18*
X005661Y015004D03*
M02*
