%
M48
M72
T01C0.0236
T02C0.0400
T03C0.0472
T04C0.0550
T05C0.1260
T06C0.1300
%
T01
X7661Y5004
X8661Y4504
X9661Y4504
X10661Y4504
X12161Y4504
X12161Y6004
X12161Y7504
X12161Y8504
X12161Y9504
X10661Y9504
X9661Y9504
X8661Y9504
X7661Y9004
X7661Y8004
X7661Y6504
X7161Y12004
T02
X2161Y1504
X3161Y1504
X4161Y1504
X5161Y1504
X6161Y1504
X7161Y1504
X8161Y1504
X9161Y1504
X10661Y1504
X11661Y1504
X12661Y1504
X13661Y1504
X14661Y1504
X15661Y1504
X16661Y1504
X17661Y1504
X15661Y6004
X15661Y7004
X15661Y8004
X18881Y19114
X18881Y20894
X21441Y20894
X21441Y19114
X14161Y20504
X13161Y20504
X12161Y20504
X11161Y20504
X10161Y20504
X9161Y20504
X7161Y20504
X6161Y20504
X5161Y20504
X4161Y20504
X3161Y20504
X2161Y20504
T03
X2661Y12632
X2661Y11254
T04
X2161Y9694
X3031Y9004
X2161Y8314
X701Y9004
T05
X5661Y15004
T06
X1161Y18504
X9761Y7004
X21161Y1504
M30
